# xmcd CD database file
#
# Track frame offsets:
#	182
#	12167
#	22287
#	34077
#	43892
#	56855
#	70022
#	80652
#	90987
#	103212
#	114160
#	124975
#	137492
#	149415
#	159462
#	170487
#
# Disc length: 2416 seconds
#
# Revision: 1
# Processed by: cddbd v1.5.2PL0 Copyright (c) Steve Scherf et al.
# Submitted via: CDex 1.51
#
DISCID=de096e10
DTITLE=Wanda Jackson - Country classics
DYEAR=1991
DGENRE=Country
TTITLE0=Rght or Wrong
TTITLE1=Brown eyed handsome man
TTITLE2=In the middle of a heartache
TTITLE3=Seven lonely days
TTITLE4=The violet and a rose
TTITLE5=The trip of my fingers
TTITLE6=Knikin' our hearts around
TTITLE7=There's a new moon over my shoulder
TTITLE8=You win again
TTITLE9=The box it came in
TTITLE10=Tears will be the chaser for your wine
TTITLE11=Swinging doors
TTITLE12=A girl don't have to drink to have fun
TTITLE13=My big iron skillet
TTITLE14=Hello darlin'
TTITLE15=Fancy satin pillows
EXTD=YEAR: 1991
EXTT0=
EXTT1=
EXTT2=
EXTT3=
EXTT4=
EXTT5=
EXTT6=
EXTT7=
EXTT8=
EXTT9=
EXTT10=
EXTT11=
EXTT12=
EXTT13=
EXTT14=
EXTT15=
PLAYORDER=
